Coordinates
version=1
nRows=7
nColumns=63
inDegrees=yes

Units are S.I. units (second, meters, Newtons, ...)
If the header above contains a line with 'inDegrees', this indicates whether rotational values are in degrees (yes) or radians (no).

endheader
time	pelvis_tilt	pelvis_list	pelvis_rotation	pelvis_tx	pelvis_ty	pelvis_tz	hip_flexion_r	hip_adduction_r	hip_rotation_r	knee_angle_r	knee_angle_r_beta	ankle_angle_r	subtalar_angle_r	mtp_angle_r	hip_flexion_l	hip_adduction_l	hip_rotation_l	knee_angle_l	knee_angle_l_beta	ankle_angle_l	subtalar_angle_l	mtp_angle_l	L5_S1_Flex_Ext	L5_S1_Lat_Bending	L5_S1_axial_rotation	L4_L5_Flex_Ext	L4_L5_Lat_Bending	L4_L5_axial_rotation	L3_L4_Flex_Ext	L3_L4_Lat_Bending	L3_L4_axial_rotation	L2_L3_Flex_Ext	L2_L3_Lat_Bending	L2_L3_axial_rotation	L1_L2_Flex_Ext	L1_L2_Lat_Bending	L1_L2_axial_rotation	L1_T12_Flex_Ext	L1_T12_Lat_Bending	L1_T12_axial_rotation	Abs_r3	Abs_r2	Abs_r1	Abs_t1	Abs_t2	neck_flexion	neck_bending	neck_rotation	arm_flex_r	arm_add_r	arm_rot_r	elbow_flex_r	pro_sup_r	wrist_flex_r	wrist_dev_r	arm_flex_l	arm_add_l	arm_rot_l	elbow_flex_l	pro_sup_l	wrist_flex_l	wrist_dev_l
      0.00000000	      1.90720452	     -6.35576197	     85.50316858	      0.19778348	      0.98628979	      0.32601052	     -5.34696759	      4.27009275	      9.75167280	      5.40439590	      0.09432450	     34.19159857	      5.22675190	      0.00000000	     -1.61067090	     -4.49089312	    -12.71939250	     13.72910911	      0.23961816	     37.44459568	     -0.91977938	      0.00000000	      0.03815585	      0.49526937	      1.05514868	      0.07085922	      0.65870827	      1.12109548	      0.06268624	      1.20419796	      1.12109548	      0.04360832	      1.20419796	      0.92325510	      0.03543152	      1.00995331	      0.85730831	      0.02180225	      0.76717226	      0.79136151	      0.27254339	      5.60258621	      5.86842043	      0.00000000	      0.00000000	     22.71764204	     -3.56458447	      6.01886490	     40.88581631	     -2.74005243	     58.05604331	     35.22603957	     88.44961130	     -1.86939616	    -18.15690355	     39.39253928	     -2.38453595	     36.04973846	     34.26294308	     58.86440955	      9.80035056	     10.08567361
      0.01694915	      1.69335330	     -6.19930294	     86.24403253	      0.19767834	      0.98622920	      0.32370897	     -6.32003430	      4.26926763	     14.16048634	      4.15002929	      0.07243168	     32.57135183	     -1.82408633	      0.00000000	     -2.04951087	     -4.05158832	    -10.14815889	     13.31406816	      0.23237433	     36.39845636	     -2.97310158	      0.00000000	      0.04482723	      0.44684434	      0.91159186	      0.08324864	      0.59430298	      0.96856635	      0.07364665	      1.08645733	      0.96856635	      0.05123304	      1.08645733	      0.79764288	      0.04162656	      0.91120498	      0.74066839	      0.02561428	      0.69216189	      0.68369390	      0.32019639	      5.05479257	      5.07000045	      0.00000000	      0.00000000	     22.71521066	     -3.51684316	      4.96653243	     41.03916383	     -2.27259425	     58.66925589	     34.62327187	     88.41213228	     -3.29881445	    -19.71160416	     38.04777780	     -2.38404013	     33.11929099	     35.97715653	     59.31712547	      7.99423286	     10.36676100
      0.03389831	      1.55337671	     -6.05954721	     87.06025545	      0.19730599	      0.98628051	      0.32214954	     -6.96216928	      4.26148486	     15.92412178	      3.38046115	      0.05900018	     31.63110421	     -5.51164457	      0.00000000	     -2.33083958	     -3.79975691	     -8.16739476	     13.04995101	      0.22776461	     35.72746455	     -4.34379829	      0.00000000	      0.04508911	      0.41196579	      0.74859309	      0.08373499	      0.54791450	      0.79538016	      0.07407690	      1.00165361	      0.79538016	      0.05153234	      1.00165361	      0.65501895	      0.04186975	      0.84008063	      0.60823188	      0.02576392	      0.63813500	      0.56144482	      0.32206700	      4.66023937	      4.16345017	      0.00000000	      0.00000000	     22.73504679	     -3.40536491	      4.26838139	     40.91672768	     -1.89874156	     58.23542131	     34.54093335	     88.39696390	     -3.59341070	    -19.68599982	     37.31889109	     -2.53504058	     31.75214454	     37.10386691	     59.32862444	      6.59329559	     10.48008232
      0.05084746	      1.48776152	     -5.97513413	     86.84802324	      0.19789744	      0.98647641	      0.32130425	     -7.28123257	      4.18742656	     17.11697661	      3.01061168	      0.05254509	     31.28122639	     -6.99765349	      0.00000000	     -2.67774285	     -3.68317548	     -8.21083649	     12.73261817	      0.22222611	     35.43782840	     -4.55812937	      0.00000000	      0.03897696	      0.39748043	      0.77130246	      0.07238411	      0.52864898	      0.81950886	      0.06403525	      0.96643393	      0.81950886	      0.04454677	      0.96643393	      0.67488965	      0.03619400	      0.81054210	      0.62668325	      0.02227143	      0.61569719	      0.57847685	      0.27840852	      4.49637816	      4.28975290	      0.00000000	      0.00000000	     22.74132986	     -3.44418197	      3.95320917	     40.80904543	     -1.64737355	     57.90540759	     34.54938042	     88.28398377	     -4.00808177	    -19.44745889	     36.98096907	     -2.55831346	     30.96132885	     37.62320660	     59.42464877	      5.60072792	     10.41834014
      0.06779661	      1.42837884	     -5.95095402	     86.84087243	      0.19830038	      0.98662462	      0.32092925	     -7.42539338	      4.14496031	     17.29689993	      2.79715499	      0.04881956	     31.32394425	     -7.21299257	      0.00000000	     -2.80055701	     -3.72118450	     -9.04494045	     12.60754420	      0.22004316	     35.62599850	     -3.45783058	      0.00000000	      0.03810475	      0.38222881	      0.77720785	      0.07076434	      0.50836432	      0.82578334	      0.06260230	      0.92935113	      0.82578334	      0.04354992	      0.92935113	      0.68005687	      0.03538407	      0.77944099	      0.63148138	      0.02177306	      0.59207243	      0.58290589	      0.27217845	      4.32384875	      4.32259692	      0.00000000	      0.00000000	     22.74248221	     -3.52478203	      3.52753830	     40.26911659	     -1.43724616	     56.10945384	     34.89086920	     88.16966687	     -3.30799897	    -18.43122416	     36.96132387	     -2.60673457	     30.85878014	     37.78554878	     59.37214421	      4.92388075	     10.15591801
      0.08474576	      1.35702966	     -5.95132786	     87.59596999	      0.19762460	      0.98675981	      0.32113367	     -7.41685929	      4.15162612	     14.48173207	      2.75310045	      0.04805067	     32.07780580	     -4.43502503	      0.00000000	     -2.60016068	     -3.76597338	     -8.75973455	     12.72677457	      0.22212412	     35.82813745	     -2.89837851	      0.00000000	      0.03555127	      0.36677928	      0.64081517	      0.06602227	      0.48781644	      0.68086612	      0.05840719	      0.89178713	      0.68086612	      0.04063155	      0.89178713	      0.56071328	      0.03301291	      0.74793630	      0.52066233	      0.02031400	      0.56814110	      0.48061138	      0.25393920	      4.14908053	      3.56402174	      0.00000000	      0.00000000	     22.76540445	     -3.41695693	      3.40890105	     39.97950312	     -1.21469240	     54.97495503	     35.12038276	     87.87441225	     -3.22361502	    -17.34443799	     37.26612478	     -2.80974818	     31.50643885	     37.73287143	     58.60256939	      4.41430416	     10.08375283
      0.10169492	      1.25515449	     -6.08231296	     86.95438824	      0.19865015	      0.98671445	      0.32138079	     -7.35297812	      4.04724228	     17.31101619	      2.55907440	      0.04466427	     31.54741280	     -7.40409536	      0.00000000	     -2.56483819	     -3.78294102	    -10.68477484	     12.68438892	      0.22138435	     36.20332041	     -1.33816887	      0.00000000	      0.04760733	      0.35034078	      0.78540349	      0.08841158	      0.46595324	      0.83449120	      0.07821409	      0.85181858	      0.83449120	      0.05441042	      0.85181858	      0.68722805	      0.04420817	      0.71441493	      0.63814033	      0.02720283	      0.54267787	      0.58905261	      0.34005442	      3.96312501	      4.36817857	      0.00000000	      0.00000000	     22.86934364	     -3.35528249	      3.07146096	     39.02876238	     -0.92046481	     51.64222738	     35.60336186	     87.38739158	     -1.57204057	    -15.64760161	     37.42481920	     -2.59747864	     31.21088293	     37.48865505	     60.10651647	      4.25545194	      9.74170424
